<svg width="2040" height="698" viewBox="0 0 2040 698" fill="none" xmlns="http://www.w3.org/2000/svg">
<path d="M60.8276 474.686C106.239 450.904 225.195 454.158 225.195 454.158C237.648 441.778 240.153 411.105 245.163 394.283C261.606 339.078 329.632 305.802 383.307 326.698C382.472 237.495 479.607 161.704 565.958 184.171C570.954 160.275 594.459 143.835 618.46 139.421C642.474 135.021 667.083 140.199 690.943 145.363C691.367 71.9071 768.209 21.894 840.211 7.26495C915.142 -7.9583 995.818 0.247433 1063.09 36.5795C1130.38 72.9115 1182.73 138.544 1196.61 213.727C1275.83 178.243 1368.24 173.207 1450.84 199.862C1509.41 218.763 1567.96 260.755 1576.28 321.718C1637.66 305.349 1708.08 351.627 1717.39 414.472C1756.66 401.994 1797.69 391.411 1838.66 395.769C1879.62 400.112 1920.9 422.169 1937.96 459.661C1977.79 454.059 2019.93 478.124 2035.33 515.277C2049.88 564.427 2035.33 604.098 1920.78 564.385C1903.17 558.287 1886.53 579.07 1869.42 586.399C1817.53 608.654 1765.32 630.993 1710.42 644.094C1608.31 668.471 1498.49 659.318 1401.82 618.388C1388.39 612.7 1375.06 606.362 1360.72 603.702C1333.82 598.708 1306.47 607.027 1279.27 609.913C1252.06 612.799 1220.43 608.003 1205.31 585.211C1146.02 626.622 1068.07 640.133 998.281 621.118C835.159 725.757 609.898 723.366 449.026 615.275C438.936 608.498 427.912 601.028 415.813 602.216C406.516 603.136 398.605 609.05 390.638 613.945C332.221 649.923 246.691 630.909 209.034 573.567C170.26 600.745 121.806 613.804 74.6251 609.771C52.0255 607.847 27.2465 602.655 12.6848 585.253C-21.9009 543.884 20.9634 495.569 60.8276 474.686" fill="white"/>
<path d="M1935.96 457.596C1930.15 444.845 1921.56 433.891 1911.13 424.805C1915.35 437.995 1916.37 451.906 1912.86 465.436C1904.33 498.311 1862.05 520.813 1833.74 502.061C1824.47 495.933 1816.85 486.069 1805.84 484.569C1798.1 483.522 1790.53 486.975 1783.53 490.428C1762.85 500.589 1741.61 511.727 1718.57 512.293C1695.54 512.859 1670.24 498.92 1666.64 476.163C1662.07 447.166 1689.7 430.707 1715.27 411.729C1705.56 349.205 1635.44 303.296 1574.25 319.614C1565.94 258.633 1507.38 216.629 1448.8 197.722C1412.35 185.948 1373.98 180.372 1335.67 180.839C1334.57 182.367 1333.49 183.938 1332.5 185.608C1388.69 186.627 1442.82 222.318 1465.88 273.563C1488.95 324.807 1479.78 388.987 1443.3 431.726C1393.75 372.471 1295.72 362.169 1234.95 409.833C1244.35 383.199 1218.66 356.904 1192.75 345.682C1166.84 334.459 1136.47 328.897 1118.38 307.216C1161.09 294.253 1184.22 254.458 1194.1 209.256C1179.56 135.029 1127.64 70.3541 1061.04 34.3939C1030.75 18.02 997.737 7.37779 963.758 2.00002C1006.14 41.2011 1037.12 92.856 1049.67 149.252C1058.68 189.656 1058.42 233.343 1041.07 270.916C1023.73 308.504 987.208 338.62 945.884 340.997C992.897 378.075 1011.51 447.166 989.458 502.84C967.424 558.514 906.57 596.144 846.92 591.007C826.881 589.28 802.893 577.406 804.407 557.353C764.852 592.62 709.504 613.126 657.835 601.366C606.152 589.605 562.479 540.541 566.286 487.669C548.907 507.043 518.523 513.326 494.904 502.443C471.284 491.546 456.325 464.36 459.764 438.575C435.564 483.409 408.987 530.592 364.352 555.131C319.702 579.685 251.914 569 233.927 521.336C212.883 532.318 185.344 529.276 167.215 513.963C126.372 553.32 77.7603 556.999 24.7045 563.552C16.5672 564.557 8.65621 565.66 1 567.203C3.06619 572.609 6.2079 577.973 10.595 583.223C25.1432 600.63 49.9233 605.824 72.5382 607.748C119.721 611.782 168.177 598.719 206.939 571.533C244.598 628.877 330.132 647.898 388.552 611.923C396.519 607.013 404.43 601.097 413.742 600.177C425.828 598.988 436.866 606.475 446.957 613.253C607.822 721.375 833.093 723.767 996.237 619.084C1066.02 638.119 1143.97 624.589 1203.27 583.166C1218.38 605.979 1250.01 610.763 1277.22 607.89C1304.44 605.003 1331.78 596.667 1358.68 601.677C1373.02 604.338 1386.36 610.664 1399.78 616.353C1496.45 657.309 1606.29 666.451 1708.39 642.081C1763.32 628.976 1815.51 606.616 1867.4 584.369C1884.53 577.024 1901.16 556.249 1918.76 562.349C2033.34 602.059 2047.87 562.377 2033.34 513.213C2017.92 476.05 1975.79 451.977 1935.96 457.596" fill="#D7FBFF"/>
<path d="M616.421 323.149C631.157 304.838 656.018 298.588 679.267 295.243C697.919 292.565 717.053 291.077 735.48 294.974C753.921 298.886 771.739 308.806 781.723 324.821C783.024 318.557 779.503 312.406 776.109 306.978C763.438 286.626 749.636 265.24 728.013 254.951C713.857 248.219 697.764 247 682.095 247C664.375 247.014 646.076 248.63 630.365 256.85C614.653 265.084 602.039 281.283 602.59 299.041C600.596 293.925 594.275 292.309 588.83 291.757C552.486 288.072 513.837 302.159 491.55 331.17C470.026 359.19 465.402 403.819 487.463 433C479.515 399.78 492.879 385.111 513.922 361.301C526.989 346.491 541.569 334.685 560.335 327.868C569.612 324.495 579.37 322.412 589.212 321.675C592.521 321.434 615.601 324.169 616.421 323.149" fill="#D7FBFF"/>
<path d="M727.47 390.618C744.196 376.687 768.01 371.836 788.822 378.101C809.648 384.381 826.853 401.608 833.166 422.484C854.499 416.006 879.807 422.838 893.432 440.546C907.058 458.254 906.579 486.088 890.896 502C904.297 489.907 914.879 474.038 918.078 456.245C921.262 438.452 916.203 418.736 902.873 406.587C889.529 394.437 867.688 391.707 853.104 402.301C855.81 390.491 844.946 380.138 834.49 374.07C816.059 363.364 795.205 356.9 773.984 355.287C766.276 354.693 758.273 354.792 751.157 357.819C742.998 361.299 736.84 368.3 731.965 375.725C722.848 389.614 717.268 407.647 723.919 422.88C718.86 406.304 725.243 386.842 739.123 376.517L727.47 390.618" fill="#D7FBFF"/>
<path d="M1111.65 524.036C1118.02 500.177 1137.05 480.11 1160.51 472.496C1183.98 464.883 1211.14 469.963 1230.27 485.544C1236.98 469.836 1253.54 458.897 1270.58 458.883C1287.64 458.869 1304.2 469.794 1310.94 485.473C1312.03 465.279 1298.77 445.142 1279.82 438.165C1260.87 431.202 1237.76 437.981 1225.54 454.085C1226.09 449.458 1221.76 445.807 1217.71 443.5C1185.76 425.372 1141.25 433.962 1118.32 462.675C1095.38 491.389 1096.8 536.773 1121.47 564C1113.72 546.778 1113.57 526.3 1121.06 508.979L1111.65 524.036" fill="white"/>
<path d="M1457.44 458.957C1465.66 449.649 1477.33 443.934 1489.34 440.737C1502.92 437.13 1517.82 436.578 1530.68 442.208C1543.56 447.838 1553.84 460.541 1553.82 474.56C1563.08 463.087 1580.9 460.456 1594.1 467.077C1607.29 473.683 1615.58 488.097 1616.82 502.767C1618.05 517.45 1612.89 532.176 1604.57 544.341C1594.79 558.586 1580.61 569.79 1564.46 576C1584.88 565.702 1597.99 542.517 1596.24 519.756C1595.83 514.352 1594.51 508.722 1590.82 504.733C1583.96 497.306 1572.05 498.311 1562.18 500.56C1548.16 503.743 1532.79 509.684 1527.49 522.995C1536.39 508.326 1529.49 487.022 1514.3 478.973C1499.12 470.938 1478.69 476.173 1467.97 489.569C1457.23 502.965 1456.2 522.783 1463.97 538.089C1451.94 514.409 1436.24 482.962 1457.44 458.957" fill="white"/>
</svg>
